<?xml version="1.0" encoding="UTF-8" standalone="no"?>
<!-- Generator: Adobe Illustrator 16.0.0, SVG Export Plug-In . SVG Version: 6.00 Build 0)  -->

<svg
   xmlns:dc="http://purl.org/dc/elements/1.1/"
   xmlns:cc="http://creativecommons.org/ns#"
   xmlns:rdf="http://www.w3.org/1999/02/22-rdf-syntax-ns#"
   xmlns:svg="http://www.w3.org/2000/svg"
   xmlns="http://www.w3.org/2000/svg"
   xmlns:sodipodi="http://sodipodi.sourceforge.net/DTD/sodipodi-0.dtd"
   xmlns:inkscape="http://www.inkscape.org/namespaces/inkscape"
   version="1.1"
   id="Capa_1"
   x="0px"
   y="0px"
   width="520.343px"
   height="520.343px"
   viewBox="0 0 520.343 520.343"
   style="enable-background:new 0 0 520.343 520.343;"
   xml:space="preserve"
   sodipodi:docname="door-off.svg"
   inkscape:version="0.92.3 (2405546, 2018-03-11)"><metadata
   id="metadata3821"><rdf:RDF><cc:Work
       rdf:about=""><dc:format>image/svg+xml</dc:format><dc:type
         rdf:resource="http://purl.org/dc/dcmitype/StillImage" /><dc:title></dc:title></cc:Work></rdf:RDF></metadata><defs
   id="defs3819" /><sodipodi:namedview
   pagecolor="#ffffff"
   bordercolor="#666666"
   borderopacity="1"
   objecttolerance="10"
   gridtolerance="10"
   guidetolerance="10"
   inkscape:pageopacity="0"
   inkscape:pageshadow="2"
   inkscape:window-width="1696"
   inkscape:window-height="895"
   id="namedview3817"
   showgrid="false"
   inkscape:zoom="0.90709394"
   inkscape:cx="389.16525"
   inkscape:cy="235.07121"
   inkscape:window-x="-8"
   inkscape:window-y="-8"
   inkscape:window-maximized="1"
   inkscape:current-layer="Capa_1" />
<g
   id="g3784"
   style="fill:#ff0000">
	<path
   d="M411.487,0H108.855C102.174,0,96.75,5.423,96.75,12.105v411.578c0,6.68,5.423,12.105,12.105,12.105   c6.683,0,12.105-5.426,12.105-12.105V24.211h278.421v8.697l-127.105,92.279v395.155l127.791-92.781   c1.631,4.764,6.1,8.222,11.42,8.222c6.679,0,12.104-5.42,12.104-12.105V12.1C423.592,5.417,418.166,0,411.487,0z M320.296,331.973   c-5.704,0-10.462-7.046-11.691-16.485h-13.631v-10.592h13.825c1.448-8.86,6.012-15.38,11.497-15.38   c6.632,0,12.005,9.498,12.005,21.231C332.307,322.468,326.928,331.973,320.296,331.973z"
   id="path3782"
   style="fill:#ff0000" />
</g>
<g
   id="g3786">
</g>
<g
   id="g3788">
</g>
<g
   id="g3790">
</g>
<g
   id="g3792">
</g>
<g
   id="g3794">
</g>
<g
   id="g3796">
</g>
<g
   id="g3798">
</g>
<g
   id="g3800">
</g>
<g
   id="g3802">
</g>
<g
   id="g3804">
</g>
<g
   id="g3806">
</g>
<g
   id="g3808">
</g>
<g
   id="g3810">
</g>
<g
   id="g3812">
</g>
<g
   id="g3814">
</g>
</svg>